<svg width="97" height="36" viewBox="0 0 97 36" fill="none" xmlns="http://www.w3.org/2000/svg">
<path d="M17.7272 26.15L17.6672 21.17C17.6072 15.62 16.9472 14.66 13.2272 14.66H6.9272C6.9572 12.92 7.0172 10.73 7.1372 9.38H8.6372L8.9672 10.97H15.0872C18.9272 10.97 20.2172 12.5 20.2172 17.12C20.2172 20 20.1272 22.1 19.7672 26L17.7272 26.15ZM7.2572 26.12L7.6772 17.99H10.6172L10.7072 26L7.2572 26.12ZM31.4349 26.18V21.17C31.4349 15.62 30.7749 14.66 27.0549 14.66H22.5549C22.5849 12.92 22.6749 10.73 22.7649 9.38H24.2649L24.5949 10.97H28.7049C32.5449 10.97 33.8349 12.5 33.8349 17.12C33.8349 19.97 33.7449 22.1 33.4149 26.03L31.4349 26.18ZM39.7779 26.21C38.7879 23.81 38.3079 21.71 38.3079 19.49C38.3079 17.96 38.5779 16.37 39.0279 14.66H36.0279C36.0579 12.92 36.1479 10.73 36.2379 9.38H37.7379L38.0679 10.97H45.3279L44.6379 14.66H41.0979C40.9479 15.62 40.8279 16.52 40.8279 17.42C40.8279 19.97 41.4579 22.34 43.1379 25.91L39.7779 26.21ZM55.5818 10.97C59.4218 10.97 60.7418 12.5 60.7418 17.12C60.7418 19.79 60.6518 21.8 60.2618 26.03L58.2818 26.18V21.17C58.2818 15.62 57.6218 14.66 53.9018 14.66H50.0318L50.5718 26L47.5718 26.12C47.6018 20.48 47.7518 15.29 48.0518 9.38H49.6718L50.0318 10.97H55.5818Z" fill="#765330"/>
<mask id="mask0_518_1756" style="mask-type:alpha" maskUnits="userSpaceOnUse" x="68" y="3" width="29" height="29">
<rect x="68" y="3" width="29" height="29" fill="#D9D9D9"/>
</mask>
<g mask="url(#mask0_518_1756)">
<path d="M82.4993 22.3327L87.3327 17.4993L82.4993 12.666L80.8077 14.3577L82.741 16.291H77.666V18.7077H82.741L80.8077 20.641L82.4993 22.3327ZM82.4993 29.5827C80.8278 29.5827 79.257 29.2655 77.7868 28.6311C76.3167 27.9967 75.0379 27.1358 73.9504 26.0483C72.8629 24.9608 72.002 23.682 71.3676 22.2118C70.7332 20.7417 70.416 19.1709 70.416 17.4993C70.416 15.8278 70.7332 14.257 71.3676 12.7868C72.002 11.3167 72.8629 10.0379 73.9504 8.95039C75.0379 7.86289 76.3167 7.00195 77.7868 6.36758C79.257 5.7332 80.8278 5.41602 82.4993 5.41602C84.1709 5.41602 85.7417 5.7332 87.2118 6.36758C88.682 7.00195 89.9608 7.86289 91.0483 8.95039C92.1358 10.0379 92.9967 11.3167 93.6311 12.7868C94.2655 14.257 94.5827 15.8278 94.5827 17.4993C94.5827 19.1709 94.2655 20.7417 93.6311 22.2118C92.9967 23.682 92.1358 24.9608 91.0483 26.0483C89.9608 27.1358 88.682 27.9967 87.2118 28.6311C85.7417 29.2655 84.1709 29.5827 82.4993 29.5827ZM82.4993 27.166C85.198 27.166 87.4837 26.2296 89.3566 24.3566C91.2296 22.4837 92.166 20.198 92.166 17.4993C92.166 14.8007 91.2296 12.515 89.3566 10.6421C87.4837 8.76914 85.198 7.83268 82.4993 7.83268C79.8007 7.83268 77.515 8.76914 75.6421 10.6421C73.7691 12.515 72.8327 14.8007 72.8327 17.4993C72.8327 20.198 73.7691 22.4837 75.6421 24.3566C77.515 26.2296 79.8007 27.166 82.4993 27.166Z" fill="#765330"/>
</g>
</svg>
