<svg width="194" height="35" viewBox="0 0 194 35" fill="none" xmlns="http://www.w3.org/2000/svg">
<path d="M49.5296 26.15L49.4696 21.17C49.4096 15.62 48.7496 14.66 45.0296 14.66H38.7296C38.7596 12.92 38.8196 10.73 38.9396 9.38H40.4396L40.7696 10.97H46.8896C50.7296 10.97 52.0196 12.5 52.0196 17.12C52.0196 20 51.9296 22.1 51.5696 26L49.5296 26.15ZM39.0596 26.12L39.4796 17.99H42.4196L42.5096 26L39.0596 26.12ZM66.0573 19.34C67.4373 20.63 68.5473 21.92 69.2973 23.18L67.8873 26.39H67.3173C65.4573 23.39 61.9173 20 58.3173 17.75H58.1973L58.3473 26.06L55.1973 26.21C55.2873 20.18 55.6173 14.42 56.1273 10.04H58.1973L58.6473 14.27C60.8073 15.35 62.9373 16.73 64.7673 18.23C65.9373 16.58 66.2373 15.89 66.2373 15.29C66.2073 14.72 65.8473 14.27 65.0673 13.85L63.6573 13.1L64.6173 10.13H65.0973C66.5073 10.55 68.4873 11.69 69.0873 12.41V13.58C69.0873 15.26 68.1873 17.06 66.0573 19.34ZM76.8303 21.14L74.2803 19.94C75.5703 17.48 75.9303 16.55 75.9303 15.83C75.9303 15.2 75.5103 14.87 74.4903 14.72L71.3703 14.21C71.4003 12.71 71.4903 10.73 71.6103 9.35H73.1103L73.3803 10.76L75.7503 11.03C77.6703 11.24 78.4803 12.2 78.4803 14.3C78.4803 15.89 77.9103 18.32 76.8303 21.14ZM89.8388 26.18V21.17C89.8388 15.62 89.1788 14.66 85.4588 14.66H80.9588C80.9888 12.92 81.0788 10.73 81.1688 9.38H82.6688L82.9988 10.97H87.1088C90.9488 10.97 92.2388 12.5 92.2388 17.12C92.2388 19.97 92.1488 22.1 91.8188 26.03L89.8388 26.18ZM102.502 26.18V22.1L103.072 21.44C105.142 19.16 106.282 17.21 106.282 15.95C106.282 15.11 105.742 14.66 104.722 14.66H95.2119C95.2419 12.92 95.3019 10.73 95.4219 9.38H96.9219L97.2519 10.97H105.172C107.512 10.97 108.652 12.17 108.652 14.69C108.652 18.11 107.242 21.59 104.482 25.04L103.582 26.18H102.502ZM95.5719 30.38V28.94L95.8119 17.99H98.6619L98.9319 30.14L95.5719 30.38ZM125.552 30.38V21.17C125.552 15.62 124.892 14.66 121.172 14.66H116.882C116.912 12.92 117.002 10.73 117.092 9.38H118.592L118.922 10.97H123.212C126.932 10.97 128.072 12.56 128.072 17.12C128.072 20.99 127.892 26.75 127.622 30.26L125.552 30.38ZM146.433 11.54C146.793 11.93 146.913 12.29 147.033 12.98C147.003 19.43 142.563 24.29 135.033 26.12H132.453C131.733 22.28 130.983 14.72 130.893 10.46L133.143 10.07H133.743L133.923 18.11C136.053 16.67 137.463 15.11 137.463 14.18C137.463 13.76 137.283 13.55 136.683 13.19L135.903 12.8L136.863 9.95H137.373C138.393 10.34 139.233 10.73 139.683 11.09C140.163 11.45 140.373 11.78 140.463 12.47V12.68C140.103 15.35 137.913 17.72 133.953 19.85L134.013 22.49C139.863 21.65 144.513 18.44 144.513 15.11C144.513 14.45 144.213 14.03 143.373 13.58L142.113 12.95L143.133 9.95H143.643C145.023 10.49 146.013 11.06 146.433 11.54ZM149.529 26.18C150.189 22.04 151.179 18.5 152.409 15.38L148.929 14.06L148.959 10.1H150.099L153.759 12.8H154.089L155.379 10.7L157.959 10.76C162.369 10.91 163.509 12.41 163.509 17.93C163.509 20.39 163.179 23.15 162.519 26H155.529L155.709 22.43H161.409L161.259 19.94C160.989 15.41 160.299 14.54 156.819 14.39L154.779 14.33C154.029 16.49 153.129 21.53 152.589 26.18H149.529ZM177.205 26.15L177.145 21.17C177.085 15.62 176.425 14.66 172.705 14.66H166.405C166.435 12.92 166.495 10.73 166.615 9.38H168.115L168.445 10.97H174.565C178.405 10.97 179.695 12.5 179.695 17.12C179.695 20 179.605 22.1 179.245 26L177.205 26.15ZM166.735 26.12L167.155 17.99H170.095L170.185 26L166.735 26.12ZM184.133 26.36V22.55L184.793 22.04C189.083 18.86 190.553 17.24 190.553 15.8C190.553 15.08 190.043 14.66 189.203 14.66H182.393C182.003 13.16 181.853 12.44 181.823 11.51L181.613 5.75L184.643 5C184.763 5.27 184.793 5.54 184.793 5.81C184.793 6.77 184.403 8.39 183.713 10.61V10.97H189.893C191.933 10.97 192.923 12.05 192.923 14.33C192.923 17.69 190.523 21.71 186.323 25.37L185.213 26.36H184.133Z" fill="#765330"/>
<mask id="mask0_518_1379" style="mask-type:alpha" maskUnits="userSpaceOnUse" x="0" y="2" width="33" height="33">
<rect width="32.8945" height="32.8945" transform="matrix(-1 0 0 1 32.8945 2)" fill="#D9D9D9"/>
</mask>
<g mask="url(#mask0_518_1379)">
<path d="M15.7886 23.929L10.3062 18.4465L15.7886 12.9641L17.7074 14.883L15.5145 17.0759H21.271V19.8171H15.5145L17.7074 22.0101L15.7886 23.929ZM15.7886 32.1526C17.6846 32.1526 19.4664 31.7928 21.1339 31.0732C22.8015 30.3537 24.2521 29.3771 25.4856 28.1436C26.7192 26.91 27.6957 25.4595 28.4153 23.7919C29.1348 22.1243 29.4946 20.3425 29.4946 18.4465C29.4946 16.5505 29.1348 14.7687 28.4153 13.1012C27.6957 11.4336 26.7192 9.98304 25.4856 8.7495C24.2521 7.51595 22.8015 6.5394 21.1339 5.81983C19.4664 5.10026 17.6846 4.74048 15.7886 4.74048C13.8926 4.74048 12.1108 5.10026 10.4432 5.81983C8.77565 6.5394 7.32509 7.51595 6.09154 8.7495C4.858 9.98304 3.88144 11.4336 3.16188 13.1012C2.44231 14.7687 2.08252 16.5505 2.08252 18.4465C2.08252 20.3425 2.44231 22.1243 3.16188 23.7919C3.88144 25.4595 4.858 26.91 6.09154 28.1436C7.32509 29.3771 8.77565 30.3537 10.4432 31.0732C12.1108 31.7928 13.8926 32.1526 15.7886 32.1526ZM15.7886 29.4114C12.7276 29.4114 10.1348 28.3492 8.01039 26.2247C5.88595 24.1003 4.82373 21.5075 4.82373 18.4465C4.82373 15.3855 5.88595 12.7928 8.01039 10.6683C10.1348 8.54391 12.7276 7.48169 15.7886 7.48169C18.8496 7.48169 21.4423 8.54391 23.5668 10.6683C25.6912 12.7928 26.7534 15.3855 26.7534 18.4465C26.7534 21.5075 25.6912 24.1003 23.5668 26.2247C21.4423 28.3492 18.8496 29.4114 15.7886 29.4114Z" fill="#765330"/>
</g>
</svg>
